<svg width="230" height="409" xmlns="http://www.w3.org/2000/svg" version="1.1">
 <g>
  <title>Layer 1</title>
  <path stroke-width="1" id="svg_17" d="m67.4,74.9c0,0 -23.8,18.4 -24.2,18c0.4,0.4 0.4,39.3 0,38.9c0.4,0.4 19.3,25.2 18.9,24.9c0.4,0.4 24.2,11.2 23.8,10.8c0.4,0.4 21.5,2 21.1,1.6c0.4,0.4 8,43.1 7.6,42.7c0.4,0.4 -16.9,-0.2 -16.9,0.4c0,0.5 -32.4,5.9 -32.4,6.5c0,0.5 -16.8,7.6 -17.2,7.2c0.4,0.4 -15.8,-16.9 -16.2,-17.3c0.4,0.4 -9.9,-0.2 -10.3,-0.5c0.4,0.4 -1.8,13.9 -2.2,13.5c0.4,0.4 -12,4.1 -12.4,3.8c0.4,0.4 -1.8,13.3 -1.2,13.3c0.5,0 10.3,15.1 9.9,14.8c0.4,0.4 -5.5,26.3 -5.9,25.9c0.4,0.4 5.8,25.2 5.8,25.8c0,0.5 7.6,20 7.2,19.6c0.4,0.4 17.2,20.4 16.6,20.4c-0.5,0 23.8,15.1 23.4,14.8c0.4,0.4 17.7,8.5 17.3,8.1c0.4,0.4 11.2,3.6 10.8,3.2c0.4,0.4 33.4,0.4 32.8,0.4c-0.5,0 37.3,-10.3 37.8,-10.3c0.5,0 23.8,-17.3 23.8,-16.8c0,0.5 15.7,-17.3 15.3,-17.7c0.4,0.4 5.8,-17.5 5.4,-17.8c0.4,0.4 3.1,-28.8 2.7,-29.2c0.4,0.4 -5.5,-26.7 -5.9,-27c0.4,0.4 -8.8,-23.4 -9.2,-23.8c0.4,0.4 -18.5,-69.4 -18.9,-69.7c0.4,0.4 22.6,-7.7 22.2,-8.1c0.4,0.4 15.5,-20.2 15.5,-19.1c0,1.1 4.9,-22.2 4.9,-21.6c0,0.5 -5.4,-20.5 -5.8,-20.9c0.4,0.4 -9.9,-13.7 -10.3,-14.1c0.4,0.4 -22.3,-8.8 -22.7,-9.2c0.4,0.4 -9.3,-13.1 -9.7,-13.5c0.4,0.4 -15.3,-12.1 -15.7,-12.4c0.4,0.4 -16.9,-4.5 -17.3,-4.9c0.4,0.4 -22.3,0.4 -22.3,1.4c0,1.1 -22.2,5.9 -22.2,6.5c0,0.5 -13.5,11.4 -13.5,11.4l-10.3,20z"  stroke="#000000" fill="#ffffff"/>
  <path id="svg_2" fill="#000000" d="m152,70l5,2l2,3l0,7l-2,2l-6,-1l-2,-3l0,-8l3,-2z"/>
  <path id="svg_3" fill="#000000" d="m123,73l5,2l2,4l0,6l-3,3l-5,-1l-3,-4l0,-7l4,-3z"/>
  <path id="svg_4" fill="#000000" d="m174,82l3,0l0,3l-2,0l-2,5l-1,7l4,4l-1,5l-3,1l2,8l6,9l0,2l-5,0l-6,-7l-1,-3l-3,1l0,2l-8,5l-7,2l-10,-1l-7,-3l-4,12l-6,7l-3,1l-1,-4l4,-5l2,-7l0,-12l-4,-11l-7,-8l-8,-4l-5,-2l1,-2l7,0l10,5l7,6l7,-6l9,-4l10,0l14,4l3,-6l5,-4zm-32,11l-9,5l-5,5l1,4l2,1l18,-1l22,-4l-4,-4l-8,-4l-6,-2l-11,0zm24,15zm-5,1l-15,2l-15,1l2,4l8,4l12,0l9,-6l4,-5l-5,0z"/>
  <path id="svg_5" fill="#000000" d="m59,259l10,0l-2,4l-20,5l-5,3l1,7l5,2l17,1l-1,4l-17,4l2,6l4,3l10,1l13,-2l1,4l-9,4l-4,0l5,5l7,2l14,0l10,-3l10,-6l8,-9l5,-10l4,-14l4,1l0,9l-4,13l-6,9l-7,8l-10,6l-16,4l-8,0l-10,-2l-8,-4l-4,-4l0,-4l-9,-2l-6,-5l-2,-3l0,-8l2,-2l-7,-6l-1,-2l0,-8l5,-6l7,-3l12,-2z"/>
  <path stroke-width="1" id="svg_18" d="m195,231c0,0 18.4,15.1 18,14.8c0.4,0.4 10.1,25.2 9.7,24.9c0.4,0.4 -0.7,19.8 -1.1,19.5c0.4,0.4 -6.6,13.3 -7.2,13.3c-0.5,0 -5.4,1.1 -5.8,0.7c0.4,0.4 -0.1,-28.3 -0.1,-27.7c0,0.5 -6.5,-25.4 -6.9,-25.8c0.4,0.4 -6.6,-19.6 -6.6,-19.6z"  stroke="#000000" fill="none"/>
  <path id="svg_19" d="m68,260.9c0,0 -24.9,4.3 -25.3,4c0.4,0.4 -4.5,8.5 -4.9,8.1c0.4,0.4 6.9,9.6 6.5,9.2c0.4,0.4 17.2,0.9 16.8,0.5c0.4,0.4 -16.9,5.2 -17.3,4.9c0.4,0.4 2,9.6 2.6,9.6c0.5,0 14.1,5.4 13.6,5c0.4,0.4 14.5,-4.5 14.1,-4.9c0.4,0.4 -11.5,9 -11.9,8.6c0.4,0.4 11.2,7.9 11.2,8.5c0,0.5 17.3,1.1 16.9,0.7c0.4,0.4 13.9,-4.5 13.5,-4.9c0.4,0.4 13.9,-8.8 13.4,-8.8c-0.5,0 7,-11.4 6.6,-11.7c0.4,0.4 5.3,-19.1 4.9,-19.5"  stroke-width="1" stroke="#000000" fill="#ffffff"/>
  <path id="svg_20" d="m104.2,88.5c0,0 20,10.3 19.5,10.3c-0.5,0 5.4,19.5 5,19.1c0.4,0.4 -6.6,22 -7,21.6"  stroke-width="1" stroke="#000000" fill="none"/>
  <path id="svg_21" d="m175,82.5c0,1.1 -5.9,14.1 -6.4,13.7c0.4,0.4 0.9,15.5 0.5,15.1c0.4,0.4 10.1,13.3 9.7,13"  stroke-width="1" stroke="#000000" fill="none"/>
  <path id="svg_22" d="m126.5,102.5c0,0 13,-10.3 12.4,-10.3c-0.5,0 14.1,-1.6 13.6,-2c0.4,0.4 12.8,4.7 12.4,4.3c0.4,0.4 9.1,8.5 8.6,8.1c0.4,0.4 -46.6,6.9 -47,6.5l-0.1,-6.7z"  stroke-width="1" stroke="#000000" fill="#f4f418"/>
  <path id="svg_23" d="m127.4,110.4c0,0 4.7,8 4.6,7.8c0.1,0.2 10.3,4.6 10.2,4.4c0.1,0.2 12.5,-0.5 12.4,-0.7c0.1,0.2 10.6,-6 10.5,-6.2c0.1,0.2 4.1,-10.7 4,-10.9l-41.7,5.7z"  stroke-width="1" stroke="#000000" fill="#ffff00"/>
  <path id="svg_24" d="m85.2,47.5l13,-6l14.5,-3.6l13.5,-2.5l8.7,0.4l-1.5,-12.4l-12.7,-13.5l-9.5,-3.3c0.1,0.2 -3.9,1 -3.9,1.3c0,0.4 -2.5,9.1 -2.5,9.1c0,0 -8.7,0 -8.8,-0.2c0.1,0.2 -5.7,2.8 -5.7,2.8c0,0 0,6.9 0.4,6.9c0.4,0 -10.5,3.3 -10.6,3c0.1,0.2 -2.1,8.6 -2.2,8.4l7.4,9.7z"  stroke-width="1" stroke="#000000" fill="#ff0000"/>
  <path id="svg_25" d="m91.7,371.9c0,0 -0.4,14.9 -0.5,14.7c0.1,0.2 -17.4,10.8 -17.4,10.8c0,0 16.4,-2.9 16.3,-3.1c0.1,0.2 8.1,10.8 8,10.5c0.1,0.2 -2.5,-11.4 -2.5,-11.6c0.1,0.2 16.8,5.7 16.8,5.7c0,0 -18.9,-11.6 -19,-11.9c0.1,0.2 -1.7,-15 -1.7,-15z"  stroke-width="1" stroke="#000000" fill="none"/>
  <path id="svg_26" d="m138.4,368.3c0,0 0.3,14.8 0.2,14.5c0.2,0.3 -14,11.4 -14.1,11c0.2,0.3 14,-2.8 13.8,-3.1c0.2,0.3 11.9,9.6 11.7,9.3c0.2,0.3 -5.7,-11.7 -5.7,-11.4c0,0.3 17.9,3.8 17.8,3.5c0.2,0.3 -19.5,-9.3 -19.7,-9.7c0.2,0.3 -4,-14.2 -4,-14.2z"  stroke-width="1" stroke="#000000" fill="none"/>
 </g>
</svg>